# xmcd CD database file
#
# Track frame offsets:
#	182
#	14605
#	28572
#	39985
#	46087
#	51427
#	56705
#	71617
#	86465
#	93500
#	106785
#	122485
#	123870
#	138050
#	152987
#	167810
#	183467
#	184267
#	188720
#	198695
#	203312
#	205872
#	216167
#	226010
#	243302
#	253435
#	259290
#	276215
#	286402
#	289027
#	291495
#	294032
#	296630
#	299220
#	301780
#	304260
#	306775
#	309335
#	311882
#	314432
#	317080
#
# Disc length: 4259 seconds
#
# Revision: 0
# Processed by: cddbd v1.4PL0 Copyright (c) Steve Scherf et al.
# Submitted via: CDex 1.51
#
DISCID=7210a129
DTITLE=Andy Clark - The Art of Innovation
DYEAR=1900
DGENRE=New Age
TTITLE0=Fast Link (a)
TTITLE1=Fast Link (b)
TTITLE2=Positive Progress (a)
TTITLE3=Positive Progress (b)
TTITLE4=Positive Progress (c)
TTITLE5=Positive Progress (d)
TTITLE6=Skywaves (a)
TTITLE7=Skywaves (b)
TTITLE8=Skywaves (c)
TTITLE9=New Innovations
TTITLE10=Facts and Figures (a)
TTITLE11=Facts and Figures (b)
TTITLE12=Facts and Figures (c)
TTITLE13=Micromovement (a)
TTITLE14=Micromovement (b)
TTITLE15=Points of Interest (a)
TTITLE16=Points of Interest (b)
TTITLE17=Points of Interest (c)
TTITLE18=On the Move (a)
TTITLE19=On the Move (b)
TTITLE20=On the Move (c)
TTITLE21=Multiplex (a)
TTITLE22=Multiplex (b)
TTITLE23=Early Learning (a)
TTITLE24=Early Learning (b)
TTITLE25=Early Learning (c)
TTITLE26=Multiplication (a)
TTITLE27=Multiplication (b)
TTITLE28=Fast Link 30
TTITLE29=Positive Progress 30
TTITLE30=Skywaves 30
TTITLE31=New Innovations 30
TTITLE32=Facts and Figures 30
TTITLE33=Micromovement 30
TTITLE34=Points of Interest 30
TTITLE35=On the Move 30 (a)
TTITLE36=On the Move 30 (b)
TTITLE37=Multiplex 30
TTITLE38=Early Learning 30 (a)
TTITLE39=Early Learning 30 (b)
TTITLE40=Multiplication 30
EXTD=
EXTT0=
EXTT1=
EXTT2=
EXTT3=
EXTT4=
EXTT5=
EXTT6=
EXTT7=
EXTT8=
EXTT9=
EXTT10=
EXTT11=
EXTT12=
EXTT13=
EXTT14=
EXTT15=
EXTT16=
EXTT17=
EXTT18=
EXTT19=
EXTT20=
EXTT21=
EXTT22=
EXTT23=
EXTT24=
EXTT25=
EXTT26=
EXTT27=
EXTT28=
EXTT29=
EXTT30=
EXTT31=
EXTT32=
EXTT33=
EXTT34=
EXTT35=
EXTT36=
EXTT37=
EXTT38=
EXTT39=
EXTT40=
PLAYORDER=
